<svg width="244" height="474" viewBox="0 0 244 474" fill="none" xmlns="http://www.w3.org/2000/svg">
<path fill-rule="evenodd" clip-rule="evenodd" d="M73.0398 122.33C94.4849 106.622 121.226 35.1671 140.489 16.8478C163.645 -5.17393 167.137 18.8153 196.095 5.30344C223.208 -7.3471 255.286 9.68741 284.336 16.8478C311.762 23.6082 338.164 32.9314 362.972 46.4373C387.855 59.9835 420.617 70.0779 430.728 96.5434C441.961 125.946 396.68 165.646 417.526 189.229C455.626 232.334 585.13 202.152 573.959 258.586C561.82 319.911 441.314 265.338 394.303 306.545C369.946 327.896 423.583 371.589 410.993 401.433C400.497 426.316 366.137 437.102 339.131 437.33C310.464 437.573 289.452 407.604 261.206 402.699C239.923 399.003 218.327 406.212 197.747 412.778C155.052 426.399 95.571 501.715 74.0338 462.415C105.5 374 107.048 388.407 108.5 332C109.128 307.627 92.399 308.536 74.0338 292.5C45.1245 267.258 2.54711 224.847 0.999943 186.5C-0.307595 154.091 46.8743 141.497 73.0398 122.33Z" fill="#5BF4CF" fill-opacity="0.3"/>
</svg>
