<svg width="232" height="331" viewBox="0 0 232 331" fill="none" xmlns="http://www.w3.org/2000/svg">
<path fill-rule="evenodd" clip-rule="evenodd" d="M309.298 3.13128C346.141 27.5969 308.818 119.607 352.346 127.438C407.989 137.449 437.248 39.8073 493.676 36.3031C527.717 34.1891 540.116 85.6882 558.115 114.659C576.994 145.046 599.668 175.725 602.453 211.391C605.238 247.038 605.438 297.369 573.668 313.775C523.875 339.487 453.961 281.768 406.988 312.327C377.937 331.227 449.855 400.204 418.412 414.78C384.584 430.46 356.53 322.144 329.779 348.116C269.47 406.669 314.689 536.487 244.859 583.278C203.132 611.237 197.41 495.924 178.838 449.256C166.805 419.021 181.088 374.057 154.264 355.632C110.801 325.777 -4.73944 379.017 0.150568 326.516C6.21884 261.363 119.452 270.892 166.402 225.314C180.563 211.567 165.788 186.343 164.851 166.629C163.368 135.435 142.822 100.498 159.205 73.9108C173.439 50.8107 211.89 62.0374 236.431 50.4643C262.853 38.0046 284.963 -13.0287 309.298 3.13128Z" fill="#5BF4CF" fill-opacity="0.2"/>
</svg>
