<svg width="323" height="521" viewBox="0 0 323 521" fill="none" xmlns="http://www.w3.org/2000/svg">
<path fill-rule="evenodd" clip-rule="evenodd" d="M-148.728 209.202C-149.848 181.583 -129.396 159.394 -118.233 134.908C-108.677 113.949 -101.44 91.5186 -87.1572 74.1517C-73.3822 57.4023 -57.6153 36.4115 -36.8234 35.9204C-12.0846 35.336 5.78169 76.1329 30.0579 71.3828C53.4067 66.8142 40.4723 94.2461 61.3008 82.109C82.9072 69.5185 128.194 -13.2461 148.807 2.1851C170.256 18.2413 146.017 70.9425 169.331 83.3875C215.886 108.239 328.556 38.977 321.877 94.5718C313.555 163.854 178.849 127.976 156.17 192.946C140.723 237.199 251.017 240.436 254.318 288.117C256.678 322.212 180.771 281.361 164.267 309.905C140.991 350.161 178.931 410.406 159.068 452.856C141.97 489.393 103.695 524.555 66.0285 519.845C25.8453 514.821 13.146 449.487 -23.4813 430.031C-55.4868 413.03 -108.485 449.544 -127.911 416.827C-151.225 377.561 -107.704 326.577 -112.335 280.382C-115.049 253.314 -147.627 236.367 -148.728 209.202Z" fill="#5BF4CF" fill-opacity="0.2"/>
</svg>
