<svg width="291" height="228" viewBox="0 0 291 228" fill="none" xmlns="http://www.w3.org/2000/svg">
<path fill-rule="evenodd" clip-rule="evenodd" d="M-261.989 231.978C-262.951 202.484 -238.727 178.519 -225.348 152.217C-213.895 129.703 -205.139 105.648 -188.198 86.9122C-171.859 68.8431 -153.135 46.2172 -128.787 45.4296C-99.8164 44.4924 -79.4154 87.8538 -50.9342 82.4719C-23.541 77.2956 -20.5562 33.5719 3.98214 20.3412C29.4367 6.61649 65.0279 -9.18614 88.9658 7.03981C113.873 23.923 84.8297 80.5352 111.966 93.5366C166.157 119.5 298.939 44.0753 290.418 103.557C279.798 177.684 122.546 141.054 95.1732 210.755C76.5292 258.23 205.615 260.294 208.876 311.194C211.208 347.592 122.857 304.906 103.174 335.611C75.4149 378.915 119.071 442.801 95.2793 488.405C74.801 527.658 29.5459 565.708 -14.4924 561.153C-61.473 556.293 -75.5145 486.65 -118.15 466.327C-155.405 448.568 -217.913 488.25 -240.242 453.541C-267.041 411.884 -215.444 356.862 -220.282 307.566C-223.118 278.681 -261.044 260.987 -261.989 231.978Z" fill="#5BF4CF" fill-opacity="0.2"/>
</svg>
