<svg width="575" height="312" viewBox="0 0 575 312" fill="none" xmlns="http://www.w3.org/2000/svg">
<path fill-rule="evenodd" clip-rule="evenodd" d="M72.8455 -39.9936C94.2905 -55.7024 122.371 -60.6642 141.634 -78.9834C164.79 -101.005 166.943 -143.509 195.901 -157.021C223.014 -169.671 255.092 -152.637 284.141 -145.476C311.567 -138.716 337.969 -129.393 362.778 -115.887C387.661 -102.34 420.423 -92.246 430.534 -65.7805C441.767 -36.3782 396.486 3.3222 417.331 26.9052C455.432 70.0097 584.936 39.8278 573.765 96.2624C561.626 157.587 441.12 103.014 394.109 144.221C369.751 165.572 423.389 209.265 410.799 239.109C400.302 263.992 365.942 274.778 338.937 275.006C310.269 275.249 289.258 245.28 261.012 240.375C239.728 236.679 218.133 243.888 197.552 250.454C154.858 264.075 95.3767 339.391 73.8395 300.091C46.7221 250.608 138.842 202.378 140.294 145.971C140.922 121.598 97.1629 123.571 78.7977 107.536C49.8883 82.2931 2.35278 62.5232 0.805607 24.1755C-0.501931 -8.23253 46.68 -20.8269 72.8455 -39.9936Z" fill="#5BF4CF" fill-opacity="0.3"/>
</svg>
