<svg version="1.1" id="Layer_1" xmlns="http://www.w3.org/2000/svg" xmlns:xlink="http://www.w3.org/1999/xlink" x="0px" y="0px"
	 width="100%" viewBox="0 0 100 100" enable-background="new 0 0 100 100" xml:space="preserve">
<path fill="#F2F4FA" opacity="1.000000" stroke="none" 
	d="
M63.000000,45.000000 
	C72.564003,50.417042 82.150391,55.795475 91.659225,61.307686 
	C92.668800,61.892933 93.224030,63.261959 93.638565,64.669556 
	C92.523949,65.388580 91.713531,65.623787 91.004669,66.034340 
	C76.679588,74.331047 62.355511,82.629623 48.059776,90.976715 
	C45.333527,92.568535 43.116341,93.128288 39.946426,91.154587 
	C30.817280,85.470467 21.340324,80.344955 12.000000,75.000000 
	C12.302280,74.526886 12.604562,74.053780 13.326899,73.290031 
	C15.530695,72.260529 17.519871,71.812904 19.058996,70.727242 
	C23.378338,67.680481 27.512087,64.370598 32.064228,61.002686 
	C37.357250,58.129063 42.340195,55.477337 47.209824,52.631699 
	C47.840157,52.263355 47.884846,50.892830 48.419342,49.993011 
	C48.637867,49.999493 49.074104,50.029163 49.135582,50.373955 
	C50.610176,50.782696 52.291523,51.371712 53.386269,50.812454 
	C56.712551,49.113201 59.812138,46.970200 63.000000,45.000000 
M51.414814,59.124603 
	C50.970535,59.434849 50.526253,59.745090 49.499901,59.844891 
	C48.005955,61.187538 46.512009,62.530186 44.431683,63.857471 
	C44.236763,63.872879 44.041840,63.888283 43.070084,63.947365 
	C39.872158,64.086159 37.463821,65.027725 37.587177,68.924309 
	C37.587177,68.924309 37.188068,68.929413 36.636639,68.367516 
	C34.137787,67.422012 33.143364,68.406670 32.742786,70.420784 
	C31.525122,70.934319 30.307459,71.447861 28.607641,72.344551 
	C29.410503,72.897865 30.213367,73.451187 30.642929,74.530922 
	C30.354771,75.108421 29.799200,76.183907 29.816240,76.193062 
	C33.331463,78.080696 36.743355,80.919739 41.603146,77.891579 
	C42.726921,77.549782 43.850697,77.207985 45.710663,76.955475 
	C48.125015,75.889992 50.539368,74.824509 52.915051,74.438721 
	C52.419079,75.410629 51.923103,76.382538 51.015854,78.160385 
	C54.252552,79.110748 57.641460,81.344063 59.953197,80.527565 
	C64.810562,78.811974 69.102196,75.494629 73.812347,72.725258 
	C70.157532,68.913048 66.176933,67.772552 62.017868,68.286163 
	C66.166885,67.253937 66.862793,63.584614 68.173523,60.911606 
	C68.971069,60.359909 69.768616,59.808212 70.950096,58.708130 
	C67.574684,52.931690 63.222721,55.853352 58.632900,57.287952 
	C58.632900,57.287952 58.508614,57.671165 58.508614,57.671165 
	C58.508614,57.671165 58.870350,57.849659 58.306561,58.301338 
	C56.342163,57.168018 54.553665,57.156784 52.997707,58.596310 
	C52.790092,58.335438 52.582478,58.074566 52.374863,57.813694 
	C52.223354,58.183308 52.071842,58.552917 51.414814,59.124603 
M26.977562,77.592598 
	C24.990696,76.938454 23.003830,76.284309 21.016962,75.630157 
	C20.845781,76.205315 20.674599,76.780472 20.503416,77.355621 
	C25.105572,79.397446 28.694151,83.707199 34.169201,83.795876 
	C34.415249,83.341553 34.661293,82.887222 34.907341,82.432892 
	C32.452003,80.966507 29.996664,79.500130 26.977562,77.592598 
M75.562950,57.801594 
	C76.769432,58.050053 77.975914,58.298515 79.182396,58.546974 
	C79.326241,58.060944 79.470085,57.574913 79.613930,57.088882 
	C75.281334,54.468243 71.335510,51.007328 66.181374,50.171524 
	C65.893700,50.737247 65.606026,51.302971 65.318352,51.868694 
	C68.523865,53.735867 71.729385,55.603043 75.562950,57.801594 
z"/>
<path fill="#212D47" opacity="1.000000" stroke="none" 
	d="
M12.000000,73.000000 
	C8.924282,72.724396 7.911312,71.058182 7.957111,67.996414 
	C8.108571,57.871170 7.825171,47.735676 8.176599,37.620369 
	C8.245862,35.626720 9.926816,32.919857 11.665613,31.874605 
	C26.102543,23.196079 40.726154,14.828016 55.296745,6.371982 
	C59.785812,3.766753 63.041027,6.190418 62.950874,12.752228 
	C62.659412,13.555759 62.480915,13.743161 62.211670,13.586136 
	C62.086128,12.853914 62.019291,12.435601 62.050613,11.666853 
	C62.039406,10.398322 61.930042,9.480225 61.741631,7.898492 
	C48.865501,15.476841 36.457317,22.779774 23.723732,30.143124 
	C21.868063,31.310740 20.337795,32.417938 18.748577,33.593987 
	C18.689623,33.662838 18.553293,33.782333 18.214314,33.731071 
	C16.221107,34.770355 14.566880,35.860897 12.707206,37.107029 
	C12.471458,37.895870 12.441157,38.529129 12.472464,39.386200 
	C12.534070,39.610012 12.882004,39.917412 12.813307,40.387070 
	C12.804238,50.907906 12.863866,60.959084 12.678794,71.165985 
	C12.289396,71.881142 12.144698,72.440567 12.000000,73.000000 
z"/>
<path fill="#8B67F5" opacity="1.000000" stroke="none" 
	d="
M62.270374,13.900043 
	C62.480915,13.743161 62.659412,13.555759 62.902931,13.168919 
	C74.978561,6.753483 74.254044,6.805290 75.221489,20.334887 
	C75.916649,30.056683 68.481888,30.817783 62.816925,34.695885 
	C62.272720,35.392536 62.077957,35.692886 61.597496,36.156326 
	C60.275139,37.876701 59.238487,39.433979 57.287910,42.364170 
	C55.156277,38.058140 52.990860,35.172615 52.284622,31.965748 
	C50.483715,23.788174 53.011753,17.466450 61.578876,14.599067 
	C61.856285,14.506218 62.041943,14.139235 62.270374,13.900043 
M61.225647,27.948717 
	C61.355232,28.863384 61.484814,29.778053 61.785297,31.899054 
	C65.040680,28.022923 67.588333,24.989479 70.814781,21.147797 
	C67.034218,21.147797 64.488655,21.147797 61.223083,21.147797 
	C61.223083,23.238043 61.223083,25.173777 61.225647,27.948717 
z"/>
<path fill="#DEDFFB" opacity="1.000000" stroke="none" 
	d="
M12.000243,75.392746 
	C21.340324,80.344955 30.817280,85.470467 39.946426,91.154587 
	C43.116341,93.128288 45.333527,92.568535 48.059776,90.976715 
	C62.355511,82.629623 76.679588,74.331047 91.004669,66.034340 
	C91.713531,65.623787 92.523949,65.388580 93.643539,65.035866 
	C94.368744,67.727089 93.439178,69.320122 90.796814,70.777328 
	C76.057106,78.905975 61.524250,87.409531 46.791676,95.551491 
	C45.178844,96.442810 42.315884,96.638405 40.757744,95.803566 
	C31.848801,91.030266 23.089546,85.961311 14.468880,80.683388 
	C13.143370,79.871857 12.798750,77.458191 12.000243,75.392746 
z"/>
<path fill="#5A6980" opacity="1.000000" stroke="none" 
	d="
M12.250000,72.971085 
	C12.144698,72.440567 12.289396,71.881142 13.033945,71.128616 
	C18.098503,68.300758 22.563210,65.665985 27.352436,62.996017 
	C29.024319,62.362053 30.371679,61.763279 31.719040,61.164501 
	C27.512087,64.370598 23.378338,67.680481 19.058996,70.727242 
	C17.519871,71.812904 15.530695,72.260529 13.373476,72.999695 
	C12.833333,72.980721 12.666667,72.961449 12.250000,72.971085 
z"/>
<path fill="#55637C" opacity="1.000000" stroke="none" 
	d="
M61.883194,35.993233 
	C62.077957,35.692886 62.272720,35.392536 62.733742,35.046093 
	C62.986439,38.030811 62.972874,41.061619 62.979652,44.546219 
	C59.812138,46.970200 56.712551,49.113201 53.386269,50.812454 
	C52.291523,51.371712 50.610176,50.782696 49.485165,50.320152 
	C51.661732,48.917919 53.487976,47.766567 55.450909,46.939701 
	C60.367504,44.868618 63.449715,41.825150 61.883194,35.993233 
z"/>
<path fill="#FBFBFC" opacity="1.000000" stroke="none" 
	d="
M61.597492,36.156326 
	C63.449715,41.825150 60.367504,44.868618 55.450909,46.939701 
	C53.487976,47.766567 51.661732,48.917919 49.423687,49.975365 
	C49.074104,50.029163 48.637867,49.999493 48.305058,49.650192 
	C45.999039,47.796730 44.025826,46.292576 42.078949,44.478676 
	C42.393124,43.200066 42.680969,42.231190 43.307014,41.093674 
	C43.905018,40.332508 44.099163,39.699375 44.436169,39.154613 
	C45.787910,36.969517 45.286102,30.106777 43.639133,28.729160 
	C41.639339,27.056417 35.612629,28.158102 34.154697,31.431879 
	C32.117184,36.007099 31.325361,41.137066 29.741405,46.220032 
	C30.435398,47.632832 31.388529,48.855278 32.271225,50.436325 
	C30.476501,54.873692 28.752209,58.952454 27.027916,63.031212 
	C22.563210,65.665985 18.098503,68.300758 13.278645,70.972900 
	C12.863866,60.959084 12.804238,50.907906 13.160975,40.328079 
	C17.070292,37.659111 20.563246,35.518784 24.409611,33.285378 
	C37.159500,26.133957 49.555977,19.075623 61.952454,12.017287 
	C62.019291,12.435601 62.086128,12.853914 62.211670,13.586136 
	C62.041943,14.139235 61.856285,14.506218 61.578876,14.599067 
	C53.011753,17.466450 50.483715,23.788174 52.284622,31.965748 
	C52.990860,35.172615 55.156277,38.058140 57.287910,42.364170 
	C59.238487,39.433979 60.275139,37.876701 61.597492,36.156326 
M29.383257,51.459377 
	C29.383257,51.459377 29.569275,51.563774 29.569275,51.563774 
	C29.569275,51.563774 29.540749,51.348953 29.383257,51.459377 
z"/>
<path fill="#5898FC" opacity="1.000000" stroke="none" 
	d="
M42.052612,44.788418 
	C44.025826,46.292576 45.999039,47.796730 48.086533,49.643707 
	C47.884846,50.892830 47.840157,52.263355 47.209824,52.631699 
	C42.340195,55.477337 37.357250,58.129063 32.064228,61.002686 
	C30.371679,61.763279 29.024319,62.362053 27.352436,62.996021 
	C28.752209,58.952454 30.476501,54.873692 32.585526,50.507332 
	C34.150303,51.083561 35.330345,51.947384 36.945137,53.129456 
	C38.028488,51.496872 39.013248,50.095798 39.907906,48.639378 
	C40.676270,47.388565 41.341679,46.074509 42.052612,44.788418 
z"/>
<path fill="#5A6980" opacity="1.000000" stroke="none" 
	d="
M52.953716,73.759018 
	C50.539368,74.824509 48.125015,75.889992 45.351158,76.538635 
	C45.041302,75.131203 45.090942,74.140610 45.375275,73.080475 
	C45.826141,72.804665 46.042320,72.598389 46.258499,72.392113 
	C45.806305,72.241356 45.354107,72.090599 44.814430,71.644226 
	C45.131683,70.891739 45.536419,70.434883 46.223465,70.016220 
	C47.021584,70.289734 47.537388,70.525047 48.018452,70.852325 
	C47.983711,70.944290 47.959778,71.139458 48.092232,71.370361 
	C48.817039,71.403763 49.409389,71.206261 50.097904,70.810097 
	C49.479244,70.372032 48.764423,70.132629 48.056847,69.695076 
	C48.064083,69.496925 48.036366,69.101326 48.333019,68.891098 
	C49.754635,67.787788 50.879597,66.894707 52.264267,66.037857 
	C53.333504,66.133278 54.143032,66.192474 54.995758,66.530891 
	C56.178226,67.102928 57.317497,67.395752 58.456764,67.688576 
	C58.514412,67.244041 58.572056,66.799507 58.629700,66.354980 
	C57.870636,66.249893 57.111576,66.144814 56.282822,65.702179 
	C56.143246,64.913834 56.073360,64.463051 56.295563,63.975010 
	C56.747986,63.824482 56.908325,63.711216 57.453018,63.628777 
	C58.577953,63.875515 59.318523,64.091423 60.193729,64.526703 
	C61.562717,64.008514 62.797073,63.270947 64.121498,62.194557 
	C63.847477,61.273235 63.483383,60.690739 63.366219,60.000965 
	C63.629818,59.668423 63.646481,59.443161 63.663147,59.217899 
	C63.296055,59.321350 62.928959,59.424801 62.228844,59.561996 
	C61.268082,59.711605 60.640347,59.827465 60.001682,59.971420 
	C59.990753,59.999512 60.049820,60.011566 60.080917,59.661129 
	C59.743191,59.024223 59.374363,58.737755 59.068428,58.219887 
	C59.131325,57.988487 59.027927,57.520184 59.033600,57.482578 
	C59.039272,57.444973 59.028538,57.369671 59.028538,57.369671 
	C63.222721,55.853352 67.574684,52.931690 70.437332,58.913406 
	C69.315315,59.521194 68.706055,59.923706 68.096786,60.326218 
	C66.862793,63.584614 66.166885,67.253937 61.614540,68.569305 
	C61.211212,68.852455 60.999924,69.084061 60.669655,69.162140 
	C58.395027,70.463760 56.450676,71.687302 54.268379,72.920265 
	C53.671528,73.206131 53.312622,73.482574 52.953716,73.759018 
z"/>
<path fill="#DFE0FB" opacity="1.000000" stroke="none" 
	d="
M52.934383,74.098869 
	C53.312622,73.482574 53.671528,73.206131 54.675354,72.938995 
	C57.213493,71.660210 59.106709,70.372139 60.999924,69.084061 
	C60.999924,69.084061 61.211212,68.852455 61.367012,68.840729 
	C66.176933,67.772552 70.157532,68.913048 73.812347,72.725258 
	C69.102196,75.494629 64.810562,78.811974 59.953197,80.527565 
	C57.641460,81.344063 54.252552,79.110748 51.015854,78.160385 
	C51.923103,76.382538 52.419079,75.410629 52.934383,74.098869 
z"/>
<path fill="#5E6D84" opacity="1.000000" stroke="none" 
	d="
M40.983925,77.831947 
	C36.743355,80.919739 33.331463,78.080696 29.816240,76.193062 
	C29.799200,76.183907 30.354771,75.108421 31.116398,74.217163 
	C31.740417,73.594360 31.890966,73.285324 32.007736,72.969666 
	C31.973959,72.963051 31.949274,73.027321 32.277210,73.017937 
	C33.087765,72.663040 33.570389,72.317528 34.032646,71.974915 
	C34.012276,71.977814 34.039814,72.007515 34.356476,72.138275 
	C35.689255,73.016853 36.705364,73.764664 37.786263,74.560158 
	C37.873871,73.070656 37.959110,71.621346 38.425835,70.167023 
	C39.550961,70.092697 40.294609,70.023392 40.916092,70.288269 
	C41.861465,71.432343 42.928997,72.242233 43.837444,73.344894 
	C42.780216,75.035759 41.882069,76.433853 40.983925,77.831947 
M35.878189,75.520905 
	C35.693283,75.456078 35.508377,75.391251 35.323471,75.326424 
	C35.377781,75.496155 35.432091,75.665886 35.878189,75.520905 
z"/>
<path fill="#E1E2FB" opacity="1.000000" stroke="none" 
	d="
M27.259445,77.813171 
	C29.996664,79.500130 32.452003,80.966507 34.907341,82.432892 
	C34.661293,82.887222 34.415249,83.341553 34.169201,83.795876 
	C28.694151,83.707199 25.105572,79.397446 20.503416,77.355621 
	C20.674599,76.780472 20.845781,76.205315 21.016962,75.630157 
	C23.003830,76.284309 24.990696,76.938454 27.259445,77.813171 
z"/>
<path fill="#E0E1FB" opacity="1.000000" stroke="none" 
	d="
M75.248932,57.635902 
	C71.729385,55.603043 68.523865,53.735867 65.318352,51.868694 
	C65.606026,51.302971 65.893700,50.737247 66.181374,50.171524 
	C71.335510,51.007328 75.281334,54.468243 79.613930,57.088882 
	C79.470085,57.574913 79.326241,58.060944 79.182396,58.546974 
	C77.975914,58.298515 76.769432,58.050053 75.248932,57.635902 
z"/>
<path fill="#C9CED8" opacity="1.000000" stroke="none" 
	d="
M41.038254,69.954086 
	C40.294609,70.023392 39.550961,70.092697 38.408249,69.861084 
	C38.001320,69.356224 37.993458,69.152275 37.985592,68.948334 
	C37.463821,65.027725 39.872158,64.086159 43.589485,64.191872 
	C44.422943,64.654915 44.737000,64.873459 45.045319,65.295441 
	C45.039577,65.498894 44.982960,65.901993 44.947529,66.255638 
	C44.920113,67.081787 44.928131,67.554283 44.787163,68.033966 
	C44.638180,68.041145 44.353203,67.952934 43.960938,67.969559 
	C42.703342,68.670433 41.838005,69.354691 40.975708,70.007416 
	C40.978752,69.975876 41.038254,69.954094 41.038254,69.954086 
z"/>
<path fill="#E2E5ED" opacity="1.000000" stroke="none" 
	d="
M44.982960,65.901993 
	C44.982960,65.901993 45.039577,65.498894 45.048828,64.989975 
	C45.044739,64.278320 45.031403,64.075577 45.018066,63.872833 
	C46.512009,62.530186 48.005955,61.187538 49.890720,60.244682 
	C50.525471,61.431007 50.769402,62.217533 50.990685,63.172768 
	C50.968037,63.341476 50.922421,63.678944 50.563953,63.681763 
	C49.725067,64.240211 49.244644,64.795845 48.458515,65.608459 
	C47.096191,65.877632 46.039574,65.889816 44.982960,65.901993 
z"/>
<path fill="#828DA0" opacity="1.000000" stroke="none" 
	d="
M59.027927,57.520184 
	C59.027927,57.520184 59.131325,57.988487 59.114426,58.554676 
	C59.414955,59.417763 59.732388,59.714664 60.049820,60.011566 
	C60.049820,60.011566 59.990753,59.999512 59.988861,60.326775 
	C59.959965,61.121498 59.932961,61.588959 59.810760,62.075760 
	C59.715561,62.095108 59.555637,61.984783 59.132607,61.975410 
	C58.146225,61.994942 57.582878,62.023842 56.548820,61.967079 
	C55.759464,61.867321 55.440815,61.853233 55.084229,61.811501 
	C55.046288,61.783848 55.016357,61.551388 54.990860,61.206635 
	C54.344730,60.249989 53.724102,59.638100 53.069244,59.041893 
	C53.035015,59.057571 53.074909,59.121456 53.074909,59.121456 
	C54.553665,57.156784 56.342163,57.168018 58.606728,57.983265 
	C58.906891,57.665192 59.027927,57.520184 59.027927,57.520184 
z"/>
<path fill="#69778C" opacity="1.000000" stroke="none" 
	d="
M41.293533,77.861763 
	C41.882069,76.433853 42.780216,75.035759 43.939034,73.309418 
	C44.199707,72.981163 44.414474,72.967178 44.486443,72.911209 
	C44.558411,72.855240 44.753647,72.774727 44.851231,72.867676 
	C44.948814,72.960617 45.140587,73.150009 45.140587,73.150009 
	C45.090942,74.140610 45.041302,75.131203 44.983063,76.493996 
	C43.850697,77.207985 42.726921,77.549782 41.293533,77.861763 
z"/>
<path fill="#C3C8D3" opacity="1.000000" stroke="none" 
	d="
M37.786385,68.936325 
	C37.993458,69.152275 38.001320,69.356224 38.026764,69.866104 
	C37.959110,71.621346 37.873871,73.070656 37.786263,74.560158 
	C36.705364,73.764664 35.689255,73.016853 34.176369,71.834671 
	C33.550072,71.203751 33.420547,71.007202 33.636616,70.626022 
	C35.050827,69.937401 36.119450,69.433411 37.188068,68.929413 
	C37.188068,68.929413 37.587177,68.924309 37.786385,68.936325 
z"/>
<path fill="#637187" opacity="1.000000" stroke="none" 
	d="
M36.912354,68.648468 
	C36.119450,69.433411 35.050827,69.937401 33.637417,70.644577 
	C33.292629,70.847755 33.348507,70.930374 33.348507,70.930374 
	C33.143364,68.406670 34.137787,67.422012 36.912354,68.648468 
z"/>
<path fill="#6F7B91" opacity="1.000000" stroke="none" 
	d="
M33.045647,70.675583 
	C33.348507,70.930374 33.292629,70.847755 33.291828,70.829201 
	C33.420547,71.007202 33.550072,71.203751 33.859703,71.703903 
	C34.039814,72.007515 34.012276,71.977814 33.732735,72.013962 
	C32.951889,72.375847 32.450581,72.701584 31.949274,73.027321 
	C31.949274,73.027321 31.973959,72.963051 31.691742,72.954056 
	C30.636282,72.617172 29.863039,72.289284 29.089796,71.961395 
	C30.307459,71.447861 31.525122,70.934319 33.045647,70.675583 
z"/>
<path fill="#EFF0F7" opacity="1.000000" stroke="none" 
	d="
M28.848719,72.152969 
	C29.863039,72.289284 30.636282,72.617172 31.725521,72.960678 
	C31.890966,73.285324 31.740417,73.594360 31.303047,73.953949 
	C30.213367,73.451187 29.410503,72.897865 28.848719,72.152969 
z"/>
<path fill="#69768C" opacity="1.000000" stroke="none" 
	d="
M68.135155,60.618912 
	C68.706055,59.923706 69.315315,59.521194 70.245361,59.187599 
	C69.768616,59.808212 68.971069,60.359909 68.135155,60.618912 
z"/>
<path fill="#C9CED8" opacity="1.000000" stroke="none" 
	d="
M51.013332,63.004063 
	C50.769402,62.217533 50.525471,61.431007 50.181755,60.349907 
	C50.526253,59.745090 50.970535,59.434849 51.700848,59.055870 
	C51.986881,58.987133 52.053333,59.051838 52.057106,59.402809 
	C52.035656,60.457401 52.010437,61.161022 52.000626,62.154049 
	C52.057400,62.632195 52.098759,62.820930 51.858418,63.009109 
	C51.388924,63.007057 51.201126,63.005558 51.013332,63.004063 
z"/>
<path fill="#C9CED8" opacity="1.000000" stroke="none" 
	d="
M51.953606,58.954834 
	C52.071842,58.552917 52.223354,58.183308 52.374863,57.813694 
	C52.582478,58.074566 52.790092,58.335438 53.036308,58.858883 
	C53.074909,59.121456 53.035015,59.057571 52.806412,59.043610 
	C52.402985,59.037041 52.228161,59.044441 52.053333,59.051838 
	C52.053333,59.051838 51.986881,58.987133 51.953606,58.954834 
z"/>
<path fill="#A3ABBA" opacity="1.000000" stroke="none" 
	d="
M44.724876,63.865154 
	C45.031403,64.075577 45.044739,64.278320 45.054565,64.786530 
	C44.737000,64.873459 44.422943,64.654915 43.977905,64.170029 
	C44.041840,63.888283 44.236763,63.872879 44.724876,63.865154 
z"/>
<path fill="#637188" opacity="1.000000" stroke="none" 
	d="
M59.033600,57.482578 
	C59.027927,57.520184 58.906891,57.665192 58.888618,57.757423 
	C58.870350,57.849659 58.508614,57.671165 58.508614,57.671165 
	C58.508614,57.671165 58.632900,57.287952 58.830719,57.328812 
	C59.028538,57.369671 59.039272,57.444973 59.033600,57.482578 
z"/>
<path fill="#7AD06D" opacity="1.000000" stroke="none" 
	d="
M62.050613,11.666853 
	C49.555977,19.075623 37.159500,26.133957 24.396667,32.870472 
	C24.036587,31.726671 24.042862,30.904690 24.049137,30.082708 
	C36.457317,22.779774 48.865501,15.476841 61.741631,7.898492 
	C61.930042,9.480225 62.039406,10.398322 62.050613,11.666853 
z"/>
<path fill="#89D281" opacity="1.000000" stroke="none" 
	d="
M23.723732,30.143124 
	C24.042862,30.904690 24.036587,31.726671 24.043255,32.963554 
	C20.563246,35.518784 17.070292,37.659111 13.229671,39.858421 
	C12.882004,39.917412 12.534070,39.610012 12.654241,39.043694 
	C12.820492,37.968727 12.866572,37.460087 12.912653,36.951443 
	C14.566880,35.860897 16.221107,34.770355 18.406717,33.901005 
	C19.130735,34.149654 19.323370,34.177116 19.516006,34.204575 
	C19.279848,33.978096 19.043688,33.751614 18.807529,33.525135 
	C20.337795,32.417938 21.868063,31.310740 23.723732,30.143124 
z"/>
<path fill="#5C6C81" opacity="1.000000" stroke="none" 
	d="
M12.707207,37.107029 
	C12.866572,37.460087 12.820492,37.968727 12.592634,38.819878 
	C12.441157,38.529129 12.471458,37.895870 12.707207,37.107029 
z"/>
<path fill="#F2EFFE" opacity="1.000000" stroke="none" 
	d="
M61.224365,27.529114 
	C61.223083,25.173777 61.223083,23.238043 61.223083,21.147797 
	C64.488655,21.147797 67.034218,21.147797 70.814781,21.147797 
	C67.588333,24.989479 65.040680,28.022923 61.785297,31.899054 
	C61.484814,29.778053 61.355232,28.863384 61.224365,27.529114 
z"/>
<path fill="#875963" opacity="1.000000" stroke="none" 
	d="
M30.000544,46.029675 
	C31.325361,41.137066 32.117184,36.007099 34.154697,31.431879 
	C35.612629,28.158102 41.639339,27.056417 43.639133,28.729160 
	C45.286102,30.106777 45.787910,36.969517 44.436169,39.154613 
	C44.099163,39.699375 43.905018,40.332508 43.312843,40.674885 
	C42.411518,37.990639 41.842564,35.556530 41.273605,33.122421 
	C40.819160,32.986614 40.364712,32.850803 39.910263,32.714993 
	C37.289116,37.140476 34.698448,41.584915 31.983122,45.951839 
	C31.787220,46.266895 30.682636,46.016933 30.000544,46.029675 
z"/>
<path fill="#EBCECF" opacity="1.000000" stroke="none" 
	d="
M29.741405,46.220032 
	C30.682636,46.016933 31.787220,46.266895 31.983122,45.951839 
	C34.698448,41.584915 37.289116,37.140476 39.910263,32.714993 
	C40.364712,32.850803 40.819160,32.986614 41.273605,33.122421 
	C41.842564,35.556530 42.411518,37.990639 42.974644,40.843529 
	C42.680969,42.231190 42.393124,43.200066 42.078945,44.478676 
	C41.341679,46.074509 40.676270,47.388565 39.907906,48.639378 
	C39.013248,50.095798 38.028488,51.496872 36.945137,53.129456 
	C35.330345,51.947384 34.150303,51.083561 32.655960,50.148727 
	C31.388529,48.855278 30.435398,47.632832 29.741405,46.220032 
z"/>
<path fill="#EBCECF" opacity="1.000000" stroke="none" 
	d="
M29.462002,51.404167 
	C29.540749,51.348953 29.569275,51.563774 29.569275,51.563774 
	C29.569275,51.563774 29.383257,51.459377 29.462002,51.404167 
z"/>
<path fill="#657389" opacity="1.000000" stroke="none" 
	d="
M59.555637,61.984783 
	C59.555637,61.984783 59.715561,62.095108 60.103035,61.936718 
	C61.670818,62.030014 62.851120,62.281696 64.031425,62.533379 
	C62.797073,63.270947 61.562717,64.008514 60.165028,64.211037 
	C59.853008,63.112255 59.704323,62.548519 59.555637,61.984783 
z"/>
<path fill="#F2F4FA" opacity="1.000000" stroke="none" 
	d="
M60.669655,69.162140 
	C59.106709,70.372139 57.213493,71.660210 54.913300,72.929565 
	C56.450676,71.687302 58.395027,70.463760 60.669655,69.162140 
z"/>
<path fill="#D7DBE4" opacity="1.000000" stroke="none" 
	d="
M44.098114,73.016647 
	C42.928997,72.242233 41.861465,71.432343 40.916092,70.288277 
	C41.038254,69.954094 40.978752,69.975876 41.384319,70.065887 
	C42.877850,70.108444 43.965809,70.060997 45.275444,70.000336 
	C45.497116,69.987114 45.941154,69.978027 45.941154,69.978027 
	C45.536419,70.434883 45.131683,70.891739 44.838474,71.668968 
	C44.949997,71.989342 44.987328,71.932014 44.941902,72.140465 
	C44.848862,72.643608 44.688194,72.849701 44.414474,72.967178 
	C44.414474,72.967178 44.199707,72.981163 44.098114,73.016647 
z"/>
<path fill="#657389" opacity="1.000000" stroke="none" 
	d="
M56.352512,66.039734 
	C57.111576,66.144814 57.870636,66.249893 58.629700,66.354980 
	C58.572056,66.799507 58.514412,67.244041 58.456764,67.688576 
	C57.317497,67.395752 56.178226,67.102928 55.347851,66.491745 
	C55.888672,66.128822 56.120594,66.084282 56.352512,66.039734 
z"/>
<path fill="#DCE0E8" opacity="1.000000" stroke="none" 
	d="
M46.223465,70.016220 
	C45.941154,69.978027 45.497116,69.987114 45.166676,69.743126 
	C44.675224,68.983734 44.514214,68.468338 44.353203,67.952934 
	C44.353203,67.952934 44.638180,68.041145 45.175690,68.046982 
	C46.483219,68.067894 47.253239,68.082970 48.023987,68.348900 
	C48.028599,68.766945 48.032482,68.934135 48.036366,69.101326 
	C48.036366,69.101326 48.064083,69.496925 48.036606,69.912155 
	C48.009132,70.327385 48.053188,70.760361 48.053192,70.760361 
	C47.537388,70.525047 47.021584,70.289734 46.223465,70.016220 
z"/>
<path fill="#DEE1E9" opacity="1.000000" stroke="none" 
	d="
M48.333019,68.891098 
	C48.032482,68.934135 48.028599,68.766945 48.115959,68.000198 
	C48.375904,66.705658 48.544601,66.010674 49.064289,65.581566 
	C50.284321,65.912163 51.153358,65.976891 52.024315,66.028625 
	C52.026226,66.015633 52.004559,66.001633 52.004559,66.001633 
	C50.879597,66.894707 49.754635,67.787788 48.333019,68.891098 
z"/>
<path fill="#C2C8D3" opacity="1.000000" stroke="none" 
	d="
M56.282822,65.702179 
	C56.120594,66.084282 55.888672,66.128822 55.304653,66.212524 
	C54.143032,66.192474 53.333504,66.133278 52.264267,66.037857 
	C52.004559,66.001633 52.026226,66.015633 51.977692,65.702347 
	C51.926025,64.951752 51.922894,64.514450 52.080631,63.929146 
	C52.241505,63.781139 52.564205,63.486168 52.831833,63.621552 
	C54.058304,63.488132 55.017147,63.219334 55.984421,63.215927 
	C55.996395,63.658306 55.999935,63.835289 56.003475,64.012268 
	C56.073360,64.463051 56.143246,64.913834 56.282822,65.702179 
z"/>
<path fill="#D2D7E0" opacity="1.000000" stroke="none" 
	d="
M64.121498,62.194557 
	C62.851120,62.281696 61.670818,62.030014 60.198235,61.917374 
	C59.932961,61.588959 59.959965,61.121498 59.999786,60.298683 
	C60.640347,59.827465 61.268082,59.711605 62.363953,59.711075 
	C62.832088,59.826405 63.119286,60.108246 63.119286,60.108246 
	C63.483383,60.690739 63.847477,61.273235 64.121498,62.194557 
z"/>
<path fill="#E6E8EF" opacity="1.000000" stroke="none" 
	d="
M59.132607,61.975410 
	C59.704323,62.548519 59.853008,63.112255 60.030396,63.991661 
	C59.318523,64.091423 58.577953,63.875515 57.438972,63.372314 
	C57.033550,62.740925 57.026543,62.396835 57.019531,62.052742 
	C57.582878,62.023842 58.146225,61.994942 59.132607,61.975410 
z"/>
<path fill="#CDD1DB" opacity="1.000000" stroke="none" 
	d="
M48.018448,70.852325 
	C48.053188,70.760361 48.009132,70.327385 48.029369,70.110306 
	C48.764423,70.132629 49.479244,70.372032 49.757084,70.835991 
	C48.866661,71.086853 48.413219,71.113159 47.959778,71.139458 
	C47.959778,71.139458 47.983711,70.944290 48.018448,70.852325 
z"/>
<path fill="#69778C" opacity="1.000000" stroke="none" 
	d="
M48.092232,71.370361 
	C48.413219,71.113159 48.866661,71.086853 49.660923,71.034653 
	C49.409389,71.206261 48.817039,71.403763 48.092232,71.370361 
z"/>
<path fill="#69778C" opacity="1.000000" stroke="none" 
	d="
M44.925957,71.964600 
	C45.354107,72.090599 45.806305,72.241356 46.258499,72.392113 
	C46.042320,72.598389 45.826141,72.804665 45.375275,73.080475 
	C45.140587,73.150009 44.948814,72.960617 44.911362,72.657913 
	C44.873905,72.355202 44.987328,71.932014 44.987328,71.932014 
	C44.987328,71.932014 44.949997,71.989342 44.925957,71.964600 
z"/>
<path fill="#CDD1DB" opacity="1.000000" stroke="none" 
	d="
M56.548820,61.967079 
	C57.026543,62.396835 57.033550,62.740925 57.054611,63.341484 
	C56.908325,63.711216 56.747986,63.824482 56.295563,63.975010 
	C55.999935,63.835289 55.996395,63.658306 55.853985,62.874348 
	C55.517467,62.124630 55.319820,61.981888 55.122169,61.839149 
	C55.440815,61.853233 55.759464,61.867321 56.548820,61.967079 
z"/>
<path fill="#D2D7E0" opacity="1.000000" stroke="none" 
	d="
M62.696976,59.677330 
	C62.928959,59.424801 63.296055,59.321350 63.663147,59.217899 
	C63.646481,59.443161 63.629818,59.668423 63.366219,60.000965 
	C63.119286,60.108246 62.832088,59.826405 62.696976,59.677330 
z"/>
<path fill="#D2D7E0" opacity="1.000000" stroke="none" 
	d="
M60.080917,59.661129 
	C59.732388,59.714664 59.414955,59.417763 59.051529,58.786076 
	C59.374363,58.737755 59.743191,59.024223 60.080917,59.661129 
z"/>
<path fill="#EFF0F7" opacity="1.000000" stroke="none" 
	d="
M32.277210,73.017937 
	C32.450581,72.701584 32.951889,72.375847 33.753105,72.011063 
	C33.570389,72.317528 33.087765,72.663040 32.277210,73.017937 
z"/>
<path fill="#C3C8D3" opacity="1.000000" stroke="none" 
	d="
M35.682297,75.678261 
	C35.432091,75.665886 35.377781,75.496155 35.323471,75.326431 
	C35.508377,75.391251 35.693283,75.456078 35.682297,75.678261 
z"/>
<path fill="#54637B" opacity="1.000000" stroke="none" 
	d="
M48.713299,65.315697 
	C48.544601,66.010674 48.375904,66.705658 48.115234,67.749344 
	C47.253239,68.082970 46.483219,68.067894 45.324677,68.039803 
	C44.928131,67.554283 44.920113,67.081787 44.947529,66.255638 
	C46.039574,65.889816 47.096191,65.877632 48.441677,65.601944 
	C48.730549,65.338440 48.713299,65.315697 48.713299,65.315697 
z"/>
<path fill="#647289" opacity="1.000000" stroke="none" 
	d="
M43.960938,67.969559 
	C44.514214,68.468338 44.675224,68.983734 44.945004,69.756348 
	C43.965809,70.060997 42.877850,70.108444 41.381279,70.097420 
	C41.838005,69.354691 42.703342,68.670433 43.960938,67.969559 
z"/>
<path fill="#647289" opacity="1.000000" stroke="none" 
	d="
M49.064289,65.581566 
	C48.713299,65.315697 48.730549,65.338440 48.747387,65.344955 
	C49.244644,64.795845 49.725067,64.240211 50.794373,63.830055 
	C51.562096,64.009399 51.740929,64.043274 51.919762,64.077148 
	C51.922894,64.514450 51.926025,64.951752 51.975777,65.715332 
	C51.153358,65.976891 50.284321,65.912163 49.064289,65.581566 
z"/>
<path fill="#C2C8D3" opacity="1.000000" stroke="none" 
	d="
M52.080635,63.929146 
	C51.740929,64.043274 51.562096,64.009399 51.152840,63.827240 
	C50.922421,63.678944 50.968037,63.341476 50.990685,63.172768 
	C51.201126,63.005558 51.388924,63.007057 51.973103,63.120300 
	C52.369488,63.232040 52.564205,63.486168 52.564205,63.486168 
	C52.564205,63.486168 52.241505,63.781139 52.080635,63.929146 
z"/>
<path fill="#637187" opacity="1.000000" stroke="none" 
	d="
M52.831833,63.621552 
	C52.564205,63.486168 52.369488,63.232040 52.254803,63.120850 
	C52.098759,62.820930 52.057400,62.632195 52.317120,62.118713 
	C53.417587,61.713104 54.216972,61.632248 55.016357,61.551392 
	C55.016357,61.551388 55.046288,61.783848 55.084229,61.811501 
	C55.319820,61.981888 55.517467,62.124630 55.845551,62.608955 
	C55.017147,63.219334 54.058304,63.488132 52.831833,63.621552 
z"/>
<path fill="#F2F4FA" opacity="1.000000" stroke="none" 
	d="
M54.990860,61.206635 
	C54.216972,61.632248 53.417587,61.713104 52.301712,61.829300 
	C52.010437,61.161022 52.035656,60.457401 52.057106,59.402809 
	C52.228161,59.044441 52.402985,59.037041 52.840637,59.027927 
	C53.724102,59.638100 54.344730,60.249989 54.990860,61.206635 
z"/>
<path fill="#5E6D84" opacity="1.000000" stroke="none" 
	d="
M44.941902,72.140465 
	C44.987328,71.932014 44.873905,72.355202 44.813774,72.564964 
	C44.753647,72.774727 44.558411,72.855240 44.486443,72.911209 
	C44.688194,72.849701 44.848862,72.643608 44.941902,72.140465 
z"/>
<path fill="#FBFBFC" opacity="1.000000" stroke="none" 
	d="
M18.748577,33.593987 
	C19.043688,33.751614 19.279848,33.978096 19.516006,34.204575 
	C19.323370,34.177116 19.130735,34.149654 18.745697,33.952263 
	C18.553293,33.782333 18.689623,33.662838 18.748577,33.593987 
z"/>
</svg>