<svg width="23" height="22" viewBox="0 0 23 22" fill="none" xmlns="http://www.w3.org/2000/svg">
<path d="M0 0.0274657V22H21.9725V15.4632C22.0174 15.2643 22.0174 15.0578 21.9725 14.8589V0H0V0.0274657ZM2.74657 2.77403H19.226V13.7603H15.1061C15.0239 13.7529 14.9412 13.7529 14.8589 13.7603C14.4947 13.7931 14.1584 13.9692 13.9241 14.2499C13.6897 14.5306 13.5765 14.893 13.6092 15.2572C13.642 15.6214 13.8181 15.9577 14.0989 16.192C14.3796 16.4264 14.7419 16.5396 15.1061 16.5069H19.226V19.2534H2.74657V2.77403ZM9.61298 5.5206C7.33333 5.5206 5.49313 7.3608 5.49313 9.64045C5.49313 12.387 9.61298 16.5069 9.61298 16.5069C9.61298 16.5069 13.7328 12.387 13.7328 9.64045C13.7328 7.3608 11.8926 5.5206 9.61298 5.5206ZM9.61298 8.26717C10.382 8.26717 10.9863 8.87141 10.9863 9.64045C10.9863 10.4095 10.382 11.0137 9.61298 11.0137C8.84394 11.0137 8.2397 10.4095 8.2397 9.64045C8.2397 8.87141 8.84394 8.26717 9.61298 8.26717Z" fill="#FFF3F3"/>
</svg>
