<?xml version="1.0" standalone="no"?>
<svg xmlns:xlink="http://www.w3.org/1999/xlink" id="wave" style="transform:rotate(180deg); transition: 0.3s" viewBox="0 0 1440 240" version="1.1" xmlns="http://www.w3.org/2000/svg"><defs><linearGradient id="sw-gradient-0" x1="0" x2="0" y1="1" y2="0"><stop stop-color="rgba(29, 60, 119, 1)" offset="0%"/><stop stop-color="rgba(234, 88, 12, 1)" offset="100%"/></linearGradient></defs><path style="transform:translate(0, 0px); opacity:1" fill="url(#sw-gradient-0)" d="M0,120L21.8,132C43.6,144,87,168,131,184C174.5,200,218,208,262,200C305.5,192,349,168,393,144C436.4,120,480,96,524,80C567.3,64,611,56,655,80C698.2,104,742,160,785,188C829.1,216,873,216,916,184C960,152,1004,88,1047,88C1090.9,88,1135,152,1178,184C1221.8,216,1265,216,1309,196C1352.7,176,1396,136,1440,132C1483.6,128,1527,160,1571,176C1614.5,192,1658,192,1702,196C1745.5,200,1789,208,1833,212C1876.4,216,1920,216,1964,208C2007.3,200,2051,184,2095,160C2138.2,136,2182,104,2225,112C2269.1,120,2313,168,2356,160C2400,152,2444,88,2487,84C2530.9,80,2575,136,2618,148C2661.8,160,2705,128,2749,116C2792.7,104,2836,112,2880,120C2923.6,128,2967,136,3011,128C3054.5,120,3098,96,3120,84L3141.8,72L3141.8,240L3120,240C3098.2,240,3055,240,3011,240C2967.3,240,2924,240,2880,240C2836.4,240,2793,240,2749,240C2705.5,240,2662,240,2618,240C2574.5,240,2531,240,2487,240C2443.6,240,2400,240,2356,240C2312.7,240,2269,240,2225,240C2181.8,240,2138,240,2095,240C2050.9,240,2007,240,1964,240C1920,240,1876,240,1833,240C1789.1,240,1745,240,1702,240C1658.2,240,1615,240,1571,240C1527.3,240,1484,240,1440,240C1396.4,240,1353,240,1309,240C1265.5,240,1222,240,1178,240C1134.5,240,1091,240,1047,240C1003.6,240,960,240,916,240C872.7,240,829,240,785,240C741.8,240,698,240,655,240C610.9,240,567,240,524,240C480,240,436,240,393,240C349.1,240,305,240,262,240C218.2,240,175,240,131,240C87.3,240,44,240,22,240L0,240Z"/><defs><linearGradient id="sw-gradient-1" x1="0" x2="0" y1="1" y2="0"><stop stop-color="rgba(29, 60, 119, 1)" offset="0%"/><stop stop-color="rgba(234, 88, 12, 1)" offset="100%"/></linearGradient></defs><path style="transform:translate(0, 50px); opacity:0.9" fill="url(#sw-gradient-1)" d="M0,24L21.8,28C43.6,32,87,40,131,60C174.5,80,218,112,262,132C305.5,152,349,160,393,144C436.4,128,480,88,524,76C567.3,64,611,80,655,84C698.2,88,742,80,785,96C829.1,112,873,152,916,160C960,168,1004,144,1047,116C1090.9,88,1135,56,1178,44C1221.8,32,1265,40,1309,40C1352.7,40,1396,32,1440,36C1483.6,40,1527,56,1571,68C1614.5,80,1658,88,1702,80C1745.5,72,1789,48,1833,40C1876.4,32,1920,40,1964,44C2007.3,48,2051,48,2095,48C2138.2,48,2182,48,2225,52C2269.1,56,2313,64,2356,88C2400,112,2444,152,2487,152C2530.9,152,2575,112,2618,88C2661.8,64,2705,56,2749,52C2792.7,48,2836,48,2880,52C2923.6,56,2967,64,3011,56C3054.5,48,3098,24,3120,12L3141.8,0L3141.8,240L3120,240C3098.2,240,3055,240,3011,240C2967.3,240,2924,240,2880,240C2836.4,240,2793,240,2749,240C2705.5,240,2662,240,2618,240C2574.5,240,2531,240,2487,240C2443.6,240,2400,240,2356,240C2312.7,240,2269,240,2225,240C2181.8,240,2138,240,2095,240C2050.9,240,2007,240,1964,240C1920,240,1876,240,1833,240C1789.1,240,1745,240,1702,240C1658.2,240,1615,240,1571,240C1527.3,240,1484,240,1440,240C1396.4,240,1353,240,1309,240C1265.5,240,1222,240,1178,240C1134.5,240,1091,240,1047,240C1003.6,240,960,240,916,240C872.7,240,829,240,785,240C741.8,240,698,240,655,240C610.9,240,567,240,524,240C480,240,436,240,393,240C349.1,240,305,240,262,240C218.2,240,175,240,131,240C87.3,240,44,240,22,240L0,240Z"/></svg>